<?xml version="1.0" encoding="utf-8"?>
<!-- Generator: Adobe Illustrator 25.2.0, SVG Export Plug-In . SVG Version: 6.00 Build 0)  -->
<svg version="1.1" id="MAP" xmlns="http://www.w3.org/2000/svg" xmlns:xlink="http://www.w3.org/1999/xlink" x="0px" y="0px"
	 viewBox="0 0 595.3 841.9" style="enable-background:new 0 0 595.3 841.9;" xml:space="preserve">

<style> 
@import url('styleMap.css')
</style>

<g id="Kamenka">
	<path id="RCamenca" class="st0" d="M46,29.9c0,0-3.2-4.9-1.1-4.1s2.1-1.2,2.1-1.2L45.7,23L39,27.1l-3.1,0.6c0,0-2.6,8-11.9,8.7
		c-2.2,0.2,3.5,6.7,3.5,6.7l-4.6,3.7l-0.3,6c0,0,1.5-4,7.2-2.5s8.7,1.2,8.7,1.2s10.8,9.2,17.9,9.3c5.8,0.1,9.7,10.4,4.8,13
		c-1.9,1-4.1-0.2-4.7-2.3c-0.3-1-0.2-2.8-1.3-2.6c-2.6,0.3-2.5,3.5-2.5,3.5l-1.6,2.7c-0.5,0.9-0.7,2-0.5,3c0.4,1.9-0.8,6.3-5.2,6.8
		c-6.4,0.8-5,0.2-7.2,0.8S36.5,91,36.5,91s-4.8,3.8-4.2,8.3c0.3,2.4,2.4,4,4.8,4.2c0.6,0.1,1.2,0.3,1.5,0.9c0.8,1.7,8.2,1.7,7.5-3.8
		c0,0,4.9-4.3,4.7-9.4c-0.1-1.9,0.5-3.6,3.6-3.3l2.3-0.1c0,0,10.1,5.5,21.1,3.6c1.1-0.2,2.3-0.1,3.4,0.3c2.2,0.7,5.2,2.2,3.7,4.5
		c-2.3,3.5,6.3,12.8,6.3,12.8s5.3,6.4,14.7-0.6c5.5-4.1,5.5,3.7,5.5,3.7s3.8,9.8,9.9,11.6c6.1,1.8,1.5,8.4,1.5,8.4
		s-9.3,13.1,6.6,13.1c0,0,13.3,1.5,15.4,4.1s0.6-4.6,0.6-4.6s-3.7-7.3-2.9-8.1s1.2-3.8,4.6-1.5l2.8,5.5l5-1.7v-9.8l7.5-1.1v-7.8
		l-5.5-6.3l-5,3.8l-14.5-16.8l0.1-3.9c0-1.2-0.4-2.3-1.2-3.1l-2.7-2.8l-2.9,0.5l0.3-2.9l-4.2-2.6c-1-0.6-1.4-1.8-0.9-2.9
		c1.3-2.9,3.2-8.7,0.5-11.7c0,0,4.6-1.7-0.3-4l-2.6,1.7L122,69c0,0,6-6.1,6.7-6.1c0.4,0,0.9-2.4,1.2-4.5c0.2-1.7-0.1-3.5-1-5
		c-1.7-3-4.6-7.8-4.9-8c-0.5-0.3-7.9,0.9-7.9,0.9s0.5-8.1-6.1,0.5c0,0-9.3,2-10.4-6.3c0,0-5.2,1.4-9.9,5.3c0,0-5.3-2.9-8.2,0.6
		c-2.9,3.5-6.9-6.1-4.7-8c2.1-1.8-10.6,0.2-10.6,0.2s5-5.5-6.7-4.4c0,0-2.8-1.7-4.3-1.2s-5.5-6.6-5.5-6.6L46,29.9z"/>
	<circle id="sRKamen" class="st1" cx="83.2" cy="88.9" r="2.1"/>
	<text id="trKamenka" transform="matrix(1 0 0 1 68.1909 69.9408)" class="st2 st3">Каменский район</text>
	<text id="tKamenka" transform="matrix(1 0 0 1 86.0635 91.1068)" class="st2 st4">Каменка</text>
</g>
<g id="Bendery">
	<path id="RBendery" class="st0" d="M342.7,624.5c0,0-0.6-4.4-2.8-5s-3.5-1.5-3.5-1.5s1.4-2.8,0.8-5.5c-0.6-2.8-1.5-6.3-1.5-6.3
		s-1.4-1.4,0-3.2s1.4-1.8,1.4-1.8l-1.2-3.8c0,0-3.8-3.5-3.2-9.3c0.6-5.8,0.6-5.8,0.6-5.8l-1.5-4.3c0,0-5.4-0.6-4.9-7.2l-7-1.2
		l-8.9,3.8c0,0-0.1,3.7,1.1,5.2s3.2,1.7,3.2,1.7l1.5,4.3l2.1,3.2l-0.1,10.2l-7.8,0.5c0,0-3.8,6.9-0.7,10.8c5.2,6.6,3.9,4.9,3.9,4.9
		s-4.7,2.5-4.1,4.6s2.5,5.8,2.5,5.8L312,627c-1.7,0.5-6-1.2-2.1,6.4c0,0,0,0,0,0.1c1,1.9,3.1,2.9,5.1,2.4c2.1-0.5,4.4-0.8,4.9,0.1
		c0.9,1.8,0.9,1.8,0.9,1.8l5.5-3.8l3.5,1.1c0,0,2.1-9.3,2.5-9c0.3,0.3,0.3,0.3,0.3,0.3l3.8-0.2l2.6-2.3L342.7,624.5z"/>
	<circle id="sRBender" class="st1" cx="331.1" cy="609.5" r="2.1"/>
	<text id="tBendery" transform="matrix(1 0 0 1 300.6378 605.9506)" class="st2 st4">Бендеры</text>
</g>
<g id="Rybnica">
	<path id="RRybnica" class="st0" d="M257.3,144.5c0,0-4.9,2-18.5,3.1c0,0,0-1.7,1.4-1.7s-2-2.9-2-2.9s-0.9,2-0.9,4.9s-4.7-1.2-5-4.9
		s-4-27.4-4-27.4l-3.1-13.8h-13.8c0,0-0.9,3.5,1.4,5.3c0,0-9.8-2.6-13.6,2.1c0,0,3.8,0.6,4,6.4s-2.3,0.6-2.4-2
		c-0.1-2.6-4.7-0.2-4.7-0.2l2.9,3.1l0.1,4.9c0,0-5.5,3.9-11.6,2l-5.4-0.3l-4-3.8l-2.9,0.2c0,0,2-6.9-3.4-2.6l-7.9-7.9l-7,5l5.5,6.3
		v8.4l-7.5,0.5v9.8l-5,1.7c0,0-2.9-11.8-7.3-4l2.9,8.1l0.5,4.6c0,0,16.6-0.6,24.3,5.7s19,1.2,4,29c-4.1,7.6-3.2,14.6-2.7,18.8
		c0.4,3.2-0.2,6.5-1.9,9.3c-2.1,3.6-5.2,8.9-2.1,14.5c5.2,9.6,4.1,21.1,8.4,24.8c2.7,2.3-3.6,10.3-2.9,11c0,0-2.8,10.4,7.8,14.8
		s4.4,18.8,4.4,18.8s-4.6,13.5,7.6,17.7s18,13.6,18,13.6l4.1,3.2l0.3,5.5l7.9-1.8v-9.9l10.1-11.5l1.5-3.8l-10.6,4.1l-10.6-19.6
		l15.9-8l-0.1,2c0,0,2.3-1.1,3.4-5.4s-0.3-7.2,4.4-8.4v-2.9l5-4l-3.2-5.8c-0.8-0.5,6,0.7,4.7-4.3l3.7-3.1l-8.4,1.1l-0.1-3.1
		c0,0,2-1.4,1.2-4.4h2.4l-0.8-11.2l3.4-1.1l-3.1-4.4l0.5-2l-5-8.7l2.4-8.6L250,205l5.5-17.4c0,0,3-5.8-1.1-6
		c-4.1-0.1-3.2-1.2-3.2-1.2s-1.5,0.2-6.3,5c-4.1,4.1-7.9-4.6-7.2-3.8c0,0-8.6-6-0.8-15.1l2.6-5.2c0,0,3-0.5,5.2-5"/>
	<circle id="sRRybnica" class="st1" cx="174.7" cy="201.6" r="2.1"/>
	<text id="tRibnica" transform="matrix(1 0 0 1 174.6562 198.1745)" class="st2 st4">Рыбница</text>
	<text id="trRibnica" transform="matrix(1 0 0 1 150.0251 234.0489)" class="st2 st3">Рыбницкий район</text>
</g>
<g id="Dubossary">
	<path id="RDubossary" class="st0" d="M202.9,486.8c0,0,7-5.8,10.2-13.8c1.8-4.3,8.2-4.9,8.2-4.9s5.5-2.3,6.6-6.7
		c1.1-4.4,6.4-9.3,6.4-9.3l2.3-6.7v-4.9c0,0-2.6,3.4-4.1-3.7s-4.1-7-4.1-7l-2.4-5.2c0,0,1.2-2.8-1.1-4.4
		c-2.3-1.7-10.2-10.2-10.2-10.2s-6.9-12.5-10.2-20.8s-0.9-10.2-0.9-10.2s3.8-0.1,6,1.1s3.8,5.4,5.8,8.6s18.3,7.2,12.7-11.5l-6.3-7.6
		l-6.1-4.6l-4.4-3.7c0,0-12.5-4.1-5.5-12.1s3.2-5,3.2-5l6.4-7.8l7.9-1.8v-9.9l10.1-11.5l-0.1,4.9l2,4v5.5c0,0-3.1,3.7-6.9,8l0.8,1.7
		l7.6-5.4l0.8,2.5l-2.1,5.4c0,0,3.8,3.2,0.5,6.3l0.8,2.9l16.1-15.6l0.9,22.6c-1.1-1.5,5.4-12.2,12-12.3c4.9-0.1,3.5-5.4,5.5-3.1
		c0,0,2.5-6.6,3.8,0.6c1.4,7.2,6.6,29.2,6.6,29.2l6.9,0.3v-2.1l8.4-1.7l2.9,12.4c0,0-5.6,2.6-3,8.1s4.9,13.9,4.9,13.9l-13,3.7
		l-2.9,5l6.1,3.7l-4.9,8.4c-0.8,1.3-1.9,2.2-3.3,2.9c-1,0.5-2.7,2.5-5.2,8h-1.2c-2.3,0.1-4.3,1.6-5,3.8l-2.1,7l0.3,4.6l-2.9,2.9
		l-13.1-0.1v2.1l2,1.8l-2,1.1v4.6l-2.4,0.3l-1.3,1.2l4.7,2.1l-2.4,5.7l-2.3,1.2c0,0,2.5-9.4-8.6-7.6c-9.6,1.5-1.9,5.4-3.5,6l0.8,8
		l1.8,5.2l-3.8,5.4c0,0-0.3-15.1-6.1-6.4c0,0-2.8,8.1-1.8,8.9c0.9,0.8-4.1,1.4-4.1,1.4s-4.3,8.1-3.1,10.2s-4.9-2.5-4.9-2.5l0.9-3.8
		L211,497L202.9,486.8z"/>
	<circle id="sRDuboss" class="st1" cx="228.7" cy="418.8" r="2.1"/>
	<text id="tDubossary" transform="matrix(1 0 0 1 188.5379 425.912)" class="st2 st4">Дубоссары</text>
	<text id="trDubossar" transform="matrix(1 0 0 1 181.312 402.578)" class="st2 st3">Дубоссарский район</text>
</g>
<g id="Grioriopol">
	<path id="RGrioriopol" class="st0" d="M329.1,565.2l30.3-9.5l-5.5-7.3l11.2-4.1l1.2-33l7-0.8l-5.2-24l-19.6,2.9l0.6,9.2l-6.6-0.3
		l-0.3-9.2l-2.8-8l-5.2,1.4l-1.4-8.2l24-3.7l-9.6-49.7l13.5-2.6l-8.7-50.9l-25.7,7.6v3.4h1.8v1.4l-0.8,3.5l2.6,0.3l-0.3,1.5
		l-3.4,1.2L327,397l-12.2,3.7v1.8l-5.5,0.8l-0.6-4.3l-20.3,5.5l-2.9,5l6.1,3.7c0,0-5.9,11.3-8.1,11.3s-5.2,8-5.2,8
		s-6.3-1.7-8.2,10.9l0.3,4.6l-2.9,2.9l-13.1-0.1v2.1l2,1.8l-2,1.1v4.6l5.2,2.3c0,0,6.3,6.6,10.7,8.7c4.4,2.1,0.8,9,0.8,9
		s0.1,10.9,9.8,7.3c9.6-3.5,9.6,3.7,9.6,3.7s1.2,6.5,4.4,11s7.6,3.9,7.6,3.9s-4,0.1-4.3,5s3.1,6.3,3.1,6.3s-4.9,10.2-8.6-2.1h-2.1
		l2.3,7.6l2.9,3.2l1.7,4.4v4l-8.1,2.3l-7.2-1.7h-4.3c0,0-0.3,10.1-2.5,2.5l2-3.5c0,0-2.8-3.1-5.4-0.2l0.1,6.7l5,5.7
		c0,0,2.3,3.4,3.4,4.1s4,5.2,5.7,5.2s10.2,15.3,20.9-0.6c10.7-15.9,14.5-5.2,14.5-5.2s2.5,3.2,6.1,3.2
		C330,553.2,329.1,565.2,329.1,565.2z"/>
	<circle id="sRGrioriopol" class="st1" cx="272.1" cy="468.5" r="2.1"/>
	<text id="tGrioriopol" transform="matrix(1 0 0 1 271.1976 462.441)" class="st2 st4">Григориополь</text>
	<text id="trGrioriopol" transform="matrix(1 0 0 1 243.1908 500.5151)" class="st2 st3">Григориопольский район</text>
</g>
<g id="Slobodzia">
	<path id="RSlobodzia" class="st0" d="M381,563.2l16-3.1l2.5,2.1c0,0,0.8-3.5,3.4-3.4c2.6,0.2,0,4.3,0,4.3h3.4l6.9,25.1l29.4-6.7
		l-1.1-2.8l11.2-2.3l3.7,14.2h-2.8l6.9,14.1l7.5-3.8l-2.1-3.2c0,0,8.1-3.5,9.8-1.5s4.1,4.4,4.7,5.8s2.1,2.8,2.1,2.8l-2,1.4
		c0,0-0.6-2.8-4,0s-7.2,4.9-7.2,4.9l10.1,15.6c0,0-1.7,6.7,3.1,6.7s-0.9,5.7-0.9,5.7l0.3,20.8c0,0,0.6,4.9-3.4,6l-0.9,11.6
		c0,0-0.5,5-0.1,6s2.9,2.8,2.9,4.9s-1.5,8.1,2.9,11.6l-0.3,8.6c0,0-9.5-2.6-9.5,0s1.5,5.7,1.5,5.7h2.5l-1.2,4.6l2-0.6l-0.3,2.6
		l-22.8,4.6l0.5-4.7l2-0.8c0,0-1.5,2.5,0.3,2.5s3.2,0.6,3.2,0.6s0.8-1.5-1.4-2.3c-2.1-0.8-2.5-2.3-2.5-2.3s-8.7-0.5-6.4-2.1
		s3.4-0.3,3.4-0.3s1.7-1.8-0.5-1.8c-2.1,0-4.9,2.6-0.9-1.4c0,0,3.4-0.3,3.4-3.5s-2.1-0.9-2.1-0.9l0.1,2.5c0,0-2.9,2.8-4.9,0.2
		s-1.2-2.9-1.2-2.9s-1.2-1.8-3.7,1.2s-4.4,2-3.4-1.2c0,0,4.4-0.5,3.5-4.1c0,0-3.4,2.6-3.1-0.8c0.3-3.4-4.6-2.2-2,1.2
		S436,710,436,710s-0.2-6.5,1.2-6.9s-4.9-7-5.7-1.5l2.8,0.8v3.8l0.8,1.8c0,0-2.2,0.5-2.5-0.9s-2.1-2.3-1.9,1.2l1.1,2.9l-1.8-0.3
		l-2.9,1.4l-4-2.6l-1.5-2.3l-6.1-1.1l-6.1-3.8h3.1v-3.2c0,0,3.1,2.8,4.4-2.6c0,0,1.2,2.1,1.2-1.7c0,0-7-2.3-2.3-3.2l3.7,2
		c0,0,2.6,0.3,0.6-2.3c0,0-4.9-2.1,1.4-3.2c0,0,9-0.8,1.5-2.5l-3.5-2.9c0,0,6.7-2.3,3.4-3.7c0,0-9.6,7.8-2-2.6c0,0,2-5.3-3.8-4.1
		c0,0-3.4,0.6-3.1,2.1s-3.7-3.1-3.7-3.1s-3.5-0.8-1.7,3.5s-2.6,2.6-2.6,2.6l-2.6-2.9c0,0-3.4,2.9-2.9-2.5c0.5-5.3-2.5-0.8-2.5-0.8
		l-8.2,0.3l-10.1-0.2l-4-1.2v-1.8l-1.5-1.4l2-2l-7.2-5.3l-9.3,1.4v-4.1h-4.4l1.7-4.7l-2.6-0.3c0,0,1.4-9.2,2.6-10.1s-1.2-7-3.8-7.6
		s-4.6-0.3-4.6-0.3s-2.1-4.7-4.7-3.8s-0.9-5.8-0.9-5.8s-1.2-6.6-6.3-6.6c0,0,1.7-1.5,0.8-5.5c-1-4-1.5-6.3-1.5-6.3s-2.5-0.2,1.4-5
		l-1.2-3.8c0,0-3.8-3.5-3.2-9.3c0.6-5.8,0.6-5.8,0.6-5.8l-1.5-4.3c0,0-5.5-2.6-4.9-7.2c0.6-4.6,2.3-5.5,2.3-5.5l49.8-16L381,563.2z"
		/>
	<circle id="sRSlob" class="st1" cx="401.1" cy="646.3" r="2.1"/>
	<text id="trSlobodz" transform="matrix(1 0 0 1 403.2038 652.1666)" class="st2 st4">Слободзея</text>
	<text id="trSlob" transform="matrix(1 0 0 1 359.973 628.6835)" class="st2 st3">Слободзейский район</text>
</g>
<g id="Tiraspol">
	<path id="sRTiraspol" class="st0" d="M350.5,585.7l8.2,0.5l-0.4,7l3.1,0.8v-2.3l2.7,0.4v-1.2l2.4-1.5l1.4,4.2l0.5-0.8h1.2l2.3-0.8
		l0.6,3.7h6l-0.3,1l1.3-0.4v1.5h1.3v-1.5l3,0.1v2.3h1.8v-2.7h-0.8l-0.1-2.9l2.4-1.8l0.5,3.7h2v0.8l0.6,0.9l-1.7,0.8l0.3,3l1.4,0.5
		l-0.5,1.7h0.5v1.9c0,0,2.8-1.8,3.5-0.8c0.7,1,0.7,1,0.7,1h1.5l2.1-1.2v4.9l-1.5,1.4l-0.6,1.4l-0.2,1.5l-0.8,2h-3.3l-1.8,2.4
		l-1.2-0.6l-1.8,1.2l-2.8,2.1l-1.1-1.8V617v-1.7l-8.6,0.6l-1.4,1.8l-0.8-1.7l-3.1,0.3l-0.7-2.4l-4.7,0.1l0.7,2.4l-5.7-0.4l0.5-1.9
		l-1.8,0.1l0.5-2.4l-2.8,0.2l1-4.1H354l-0.8-4.9l-4.5-9.1v-2.1h2.1L350.5,585.7z"/>
	<rect id="sTiraspol" x="375.2" y="605.3" class="st5" width="6.3" height="6.3"/>
	<text id="tTiraspol" transform="matrix(1 0 0 1 357.1845 602.8047)" class="st6 st7">Тирасполь</text>
</g>
</svg>
